<svg width="250" height="251" xmlns="http://www.w3.org/2000/svg" xmlns:xlink="http://www.w3.org/1999/xlink" xml:space="preserve" overflow="hidden"><defs><clipPath id="clip0"><rect x="515" y="190" width="250" height="251"/></clipPath></defs><g clip-path="url(#clip0)" transform="translate(-515 -190)"><path d="M134.81 106.925C134.1 106.528 133.202 106.782 132.805 107.492 132.409 108.203 132.663 109.101 133.373 109.497 133.394 109.509 133.416 109.521 133.438 109.531L136.81 111.307 133.17 112.435C132.389 112.666 131.943 113.486 132.174 114.267 132.405 115.048 133.226 115.493 134.006 115.262 134.018 115.259 134.031 115.255 134.043 115.251L137.682 114.122 135.938 117.437C135.547 118.151 135.789 119.046 136.487 119.465 137.196 119.865 138.095 119.614 138.495 118.905 138.502 118.893 138.508 118.88 138.515 118.868L140.29 115.496 141.419 119.135C141.659 119.912 142.484 120.348 143.261 120.108 143.322 120.089 143.381 120.066 143.439 120.04 144.12 119.711 144.453 118.929 144.218 118.21L143.105 114.622 146.477 116.398C147.193 116.785 148.087 116.52 148.475 115.804 148.862 115.089 148.596 114.194 147.881 113.807 147.871 113.801 147.861 113.796 147.85 113.791L144.479 112.015 148.067 110.902C148.804 110.684 149.261 109.948 149.128 109.191 148.971 108.394 148.197 107.875 147.4 108.032 147.348 108.042 147.297 108.055 147.246 108.071L143.606 109.2 145.382 105.828C145.761 105.108 145.484 104.216 144.764 103.837 144.044 103.458 143.153 103.735 142.774 104.455L140.998 107.827 139.87 104.187C139.629 103.41 138.804 102.975 138.027 103.215 137.967 103.234 137.907 103.257 137.85 103.283 137.169 103.612 136.836 104.394 137.071 105.113L138.184 108.7Z" fill="#C55A11" transform="matrix(1 0 0 1.004 515 190)"/><path d="M172.165 98.9284 170.115 97.1172 167.081 94.438 165.868 90.5768 165.048 87.9674 162.435 87.1615C160.633 86.605 158.759 86.3219 156.873 86.3216 154.253 86.3206 151.663 86.8727 149.27 87.9414 147.299 83.6839 143.798 80.3232 139.464 78.5263L136.94 77.4734 131.236 81.1453 124.457 81.3451 122.971 83.6414C120.414 87.5771 119.431 92.3302 120.216 96.9573 115.737 97.7742 111.71 100.196 108.89 103.769L107.191 105.913 107.992 108.528 109.176 112.398 108.192 116.324 107.526 118.977 109.333 121.031C112.208 124.303 116.132 126.473 120.431 127.169 119.845 131.735 120.963 136.357 123.572 140.15L125.118 142.406 127.853 142.415 131.9 142.427 135.36 144.527 137.697 145.947 140.193 144.827C143.718 143.254 146.67 140.63 148.646 137.315 151.1 138.446 153.77 139.032 156.473 139.033 157.609 139.033 158.742 138.93 159.86 138.727L162.551 138.237 163.675 135.744 165.338 132.054 168.668 129.753 170.919 128.199 170.916 125.465C170.921 120.861 169.228 116.418 166.161 112.985 169.315 109.981 171.322 105.97 171.836 101.644ZM160.615 110.757C159.317 111.6 157.884 112.213 156.378 112.57 156.33 112.581 156.33 112.602 156.376 112.617 161.951 114.416 165.724 119.611 165.709 125.469L161.187 128.594 158.928 133.604C158.118 133.752 157.297 133.826 156.474 133.826 152.438 133.835 148.611 132.026 146.058 128.899 146.036 128.873 146.016 128.879 146.013 128.913 145.603 133.807 142.555 138.087 138.065 140.076L133.367 137.223 127.87 137.207C124.544 132.386 124.714 125.967 128.292 121.329 128.322 121.29 128.309 121.273 128.263 121.291 126.82 121.849 125.291 122.155 123.745 122.194 123.627 122.197 123.51 122.199 123.393 122.198 119.504 122.198 115.805 120.518 113.245 117.591L114.583 112.26 112.973 107.005C115.455 103.854 119.212 101.971 123.222 101.87 123.339 101.867 123.456 101.865 123.572 101.866 125.265 101.865 126.942 102.184 128.517 102.806 128.569 102.827 128.582 102.81 128.545 102.767 124.529 98.2216 124.039 91.5563 127.345 86.4719L132.84 86.3104 137.46 83.3333C143.048 85.6492 146.415 91.3982 145.7 97.4047 145.693 97.4607 145.713 97.468 145.745 97.4216 148.252 93.7388 152.418 91.5333 156.873 91.5299 158.238 91.5305 159.595 91.7354 160.899 92.1383L162.547 97.3815 166.667 101.021C166.198 105.005 163.98 108.574 160.615 110.757Z" fill="#C55A11" transform="matrix(1 0 0 1.004 515 190)"/><path d="M198.246 29.3427C197.941 28.7099 197.18 28.4451 196.547 28.7508 195.924 29.0518 195.656 29.7953 195.943 30.4247L197.342 33.4029 194.247 32.2862C193.586 32.0477 192.857 32.3904 192.619 33.0513 192.609 33.0773 192.601 33.1034 192.593 33.1299 192.422 33.7948 192.792 34.4794 193.442 34.7008L196.479 35.7964 193.558 37.1682C192.895 37.4708 192.603 38.2536 192.905 38.9169 192.908 38.9216 192.91 38.9266 192.912 38.9313 193.226 39.5391 193.964 39.7898 194.583 39.4987L197.561 38.0992 196.465 41.1375C196.224 41.7687 196.502 42.4797 197.107 42.781 197.745 43.076 198.501 42.7984 198.796 42.1607 198.811 42.1271 198.826 42.0924 198.838 42.0576L199.955 38.9628 201.354 41.9406C201.497 42.2464 201.756 42.4826 202.073 42.5969 202.212 42.6469 202.359 42.6724 202.506 42.6724 203.209 42.6716 203.778 42.1016 203.777 41.3987 203.777 41.2122 203.736 41.0279 203.657 40.8591L202.258 37.8805 205.353 38.9971C206.014 39.2357 206.743 38.893 206.981 38.232 206.991 38.206 206.999 38.18 207.007 38.1534 207.178 37.4885 206.808 36.8039 206.158 36.5826L203.121 35.487 206.05 34.1112C206.655 33.8388 206.961 33.156 206.761 32.5227 206.585 32.0086 206.101 31.6633 205.558 31.6633 205.371 31.6633 205.186 31.7047 205.017 31.7849L202.039 33.1836 203.136 30.1438C203.375 29.5128 203.097 28.8034 202.492 28.5031 201.855 28.2083 201.099 28.4859 200.804 29.1237 200.789 29.1573 200.774 29.1914 200.762 29.2263L199.645 32.3211Z" fill="#C55A11" transform="matrix(1 0 0 1.004 515 190)"/><path d="M227.713 37.5875 228.82 34.4823 229.739 31.9062 228.139 29.6875C225.889 26.5552 222.633 24.2887 218.915 23.2661 219.599 19.3332 218.866 15.285 216.846 11.8417L215.466 9.47969 209.451 9.02969 204.534 5.53646 201.964 6.47396C198.211 7.83453 195.063 10.4824 193.079 13.9464 190.895 12.9541 188.524 12.4424 186.126 12.4461 184.684 12.4465 183.249 12.6297 181.854 12.9914L179.206 13.6781 178.268 16.2479 177.138 19.3443 174.571 21.4117 172.441 23.1279 172.644 25.856C172.914 29.5409 174.385 33.0357 176.832 35.8039 174.208 38.7104 172.678 42.4391 172.503 46.3508L172.376 49.0828 174.554 50.7383 177.178 52.7328 178.395 55.7966 179.404 58.3385 182.07 58.9503C183.319 59.237 184.597 59.3815 185.878 59.3818 187.843 59.3857 189.795 59.0438 191.642 58.3721 193.291 61.1857 195.719 63.4617 198.633 64.9253L201.076 66.1562 203.475 64.8438 206.367 63.262 209.66 63.4026 212.393 63.5182 214.04 61.3344C216.404 58.2112 217.607 54.3625 217.442 50.449 221.089 49.8724 224.45 48.1242 227.016 45.4688L228.914 43.4992 228.369 40.8188ZM223.265 41.8542C221.071 44.1438 218.039 45.4396 214.867 45.4427 214.59 45.4427 214.31 45.4328 214.029 45.4128 212.7 45.3185 211.397 44.9969 210.177 44.462 210.133 44.4425 210.12 44.4586 210.147 44.4987 213.045 48.6383 212.938 54.1755 209.882 58.1997L205.14 57.9982 200.977 60.275C197.184 58.3844 194.724 54.5771 194.559 50.343 194.557 50.3091 194.538 50.3021 194.515 50.3271 192.315 52.7802 189.173 54.1797 185.878 54.1745 184.989 54.1747 184.102 54.0742 183.235 53.875L181.484 49.4638 177.706 46.5922C177.924 41.5443 181.375 37.2141 186.248 35.8763 186.295 35.8633 186.295 35.8424 186.248 35.8289 181.548 34.482 178.19 30.3445 177.839 25.4688L181.534 22.4922 183.161 18.0341C184.129 17.7826 185.125 17.6553 186.126 17.6552 190.175 17.6581 193.933 19.7651 196.047 23.219 196.077 23.2672 196.097 23.2609 196.093 23.2042 195.699 17.9876 198.83 13.1479 203.749 11.3677L207.617 14.1146 212.349 14.4688C214.991 18.9679 214.322 24.6746 210.712 28.4411 210.673 28.4815 210.684 28.4992 210.738 28.4815 211.933 28.0784 213.186 27.8729 214.447 27.8729 214.722 27.8729 214.998 27.8826 215.276 27.9021 218.731 28.1469 221.897 29.9174 223.915 32.7328L222.321 37.2029Z" fill="#C55A11" transform="matrix(1 0 0 1.004 515 190)"/><path d="M212.958 108.333C212.467 107.961 211.766 108.057 211.394 108.548 211.027 109.031 211.113 109.718 211.587 110.096L213.866 111.869 211.04 112.222C210.487 112.301 210.063 112.754 210.022 113.312 210.01 113.929 210.5 114.439 211.117 114.451 211.124 114.452 211.13 114.452 211.137 114.452 211.184 114.451 211.23 114.448 211.277 114.442L214.141 114.085 212.368 116.365C211.989 116.852 212.077 117.553 212.564 117.932 212.76 118.084 213 118.166 213.248 118.167 213.295 118.167 213.341 118.164 213.387 118.158 213.681 118.122 213.948 117.97 214.13 117.736L215.904 115.457 216.261 118.321C216.331 118.879 216.805 119.299 217.368 119.299 217.429 119.299 217.49 119.295 217.55 119.285 218.141 119.184 218.549 118.639 218.478 118.044L218.121 115.179 220.4 116.953C220.888 117.331 221.589 117.241 221.966 116.753 222.342 116.267 222.255 115.57 221.772 115.191L219.492 113.417 222.318 113.065C222.872 112.986 223.295 112.532 223.336 111.975 223.349 111.358 222.858 110.848 222.241 110.835 222.234 110.835 222.228 110.835 222.221 110.835 222.174 110.835 222.128 110.838 222.082 110.844L219.217 111.202 220.99 108.922C221.369 108.435 221.282 107.734 220.795 107.355 220.308 106.977 219.607 107.064 219.228 107.551L217.454 109.83 217.097 106.965C217.028 106.407 216.554 105.988 215.991 105.987 215.932 105.987 215.873 105.992 215.815 106.001 215.222 106.098 214.81 106.645 214.881 107.242L215.239 110.107Z" fill="#C55A11" transform="matrix(1 0 0 1.004 515 190)"/><path d="M241.589 104.935 239.901 102.808 239.555 100.115 239.207 97.4018 236.775 96.1487C234.578 95.0177 232.143 94.4255 229.672 94.4214 228.825 94.4211 227.98 94.4906 227.144 94.6297 226.007 91.3638 223.806 88.5742 220.894 86.7083L218.594 85.2292 213.564 87.3292 208.172 86.5289 206.305 88.5289C203.942 91.0536 202.494 94.2987 202.194 97.744 198.863 98.0185 195.71 99.3654 193.208 101.583L191.159 103.394 191.488 106.11 191.814 108.806 190.701 111.282 189.579 113.777 190.996 116.117C192.645 118.848 195.099 121.002 198.021 122.282 197.256 125.586 197.6 129.051 199 132.14L200.126 134.634 202.817 135.122 205.489 135.607 207.526 137.404 209.578 139.213 212.232 138.551C214.957 137.873 217.447 136.467 219.434 134.483 221.831 135.909 224.569 136.66 227.359 136.657L230.105 136.657 231.693 134.391 233.227 132.15 235.697 131.023 238.186 129.888 238.665 127.195C239.264 123.856 238.747 120.412 237.193 117.396 239.711 115.437 241.561 112.747 242.488 109.695L243.288 107.078ZM231.697 114.629C230.623 115.082 229.48 115.348 228.317 115.416 228.268 115.419 228.265 115.439 228.307 115.462 232.214 117.551 234.328 121.922 233.538 126.282L229.749 128.01 227.396 131.447 227.359 131.447C223.655 131.465 220.235 129.469 218.427 126.236 218.41 126.207 218.39 126.21 218.381 126.242 217.42 129.831 214.579 132.612 210.969 133.497L207.844 130.742 203.746 129.998C201.91 125.966 202.885 121.21 206.16 118.225 206.196 118.192 206.186 118.173 206.139 118.183 201.929 118.993 197.661 117.091 195.449 113.418L197.157 109.62 196.657 105.485C198.526 103.825 200.939 102.906 203.439 102.902 203.957 102.902 204.474 102.942 204.986 103.02 206.334 103.224 207.628 103.697 208.79 104.411 208.838 104.44 208.853 104.426 208.824 104.377 206.448 100.454 206.975 95.4289 210.112 92.0828L214.232 92.6945 218.075 91.0898C221.927 93.5568 223.674 98.2807 222.354 102.66 222.338 102.713 222.356 102.724 222.395 102.685 224.313 100.734 226.933 99.6336 229.67 99.6302 231.311 99.632 232.928 100.026 234.386 100.779L234.917 104.91 237.505 108.173C236.626 111.082 234.496 113.448 231.696 114.629Z" fill="#C55A11" transform="matrix(1 0 0 1.004 515 190)"/><path d="M182.789 153.984C182.34 153.635 181.693 153.716 181.344 154.165 180.995 154.613 181.076 155.26 181.524 155.609L183.626 157.245 181.034 157.568C180.503 157.64 180.101 158.084 180.081 158.619 180.094 159.178 180.55 159.625 181.11 159.626 181.153 159.626 181.197 159.624 181.24 159.618L183.882 159.289 182.247 161.391C181.898 161.84 181.979 162.487 182.428 162.836 182.608 162.976 182.83 163.052 183.058 163.053 183.101 163.053 183.144 163.05 183.187 163.044 183.458 163.011 183.704 162.871 183.872 162.655L185.507 160.553 185.837 163.196C185.901 163.711 186.338 164.097 186.857 164.098 187.138 164.101 187.403 163.972 187.574 163.75 187.785 163.457 187.885 163.097 187.855 162.737L187.551 160.298 189.653 161.934C189.833 162.075 190.056 162.151 190.285 162.151 190.328 162.151 190.37 162.148 190.413 162.143 190.977 162.073 191.377 161.558 191.307 160.994 191.273 160.723 191.133 160.476 190.917 160.308L188.816 158.673 191.408 158.35C191.94 158.278 192.342 157.834 192.36 157.298 192.348 156.739 191.891 156.292 191.332 156.292 191.289 156.291 191.245 156.294 191.202 156.3L188.56 156.63 190.16 154.573C190.514 154.12 190.455 153.47 190.024 153.09 189.579 152.735 188.931 152.809 188.577 153.254 188.574 153.257 188.572 153.26 188.57 153.263L186.934 155.364 186.605 152.722C186.54 152.207 186.103 151.821 185.584 151.82 185.534 151.82 185.485 151.823 185.436 151.83 184.877 151.929 184.494 152.448 184.565 153.011L184.891 155.619Z" fill="#C55A11" transform="matrix(1 0 0 1.004 515 190)"/><path d="M209.508 150.599 208.022 148.726 207.717 146.353 207.37 143.64 204.938 142.387C202.855 141.314 200.546 140.753 198.203 140.749 197.513 140.749 196.823 140.798 196.14 140.895 195.03 137.932 192.992 135.408 190.328 133.701L188.027 132.221 183.297 134.197 178.226 133.444 176.359 135.444C174.197 137.753 172.84 140.701 172.493 143.846 169.455 144.167 166.594 145.429 164.308 147.455L162.259 149.267 162.588 151.983 162.874 154.357 161.894 156.538 160.772 159.033 162.19 161.372C163.695 163.865 165.909 165.852 168.548 167.08 167.917 170.119 168.268 173.279 169.549 176.105L170.674 178.598 173.365 179.087 175.718 179.515 177.513 181.096 179.565 182.904 182.218 182.241C184.7 181.625 186.977 180.371 188.824 178.603 191.034 179.854 193.53 180.51 196.07 180.507L198.816 180.507 200.401 178.241 201.752 176.268 203.928 175.276 206.417 174.141 206.895 171.447C207.442 168.393 207.006 165.244 205.648 162.454 207.905 160.614 209.562 158.144 210.409 155.358L211.209 152.743ZM200.069 159.79C199.081 160.207 198.029 160.453 196.958 160.516 196.909 160.518 196.906 160.539 196.948 160.562 200.547 162.489 202.494 166.518 201.767 170.536L198.272 172.129 196.103 175.298 196.069 175.298C192.656 175.314 189.503 173.475 187.836 170.497 187.819 170.468 187.799 170.471 187.79 170.503 186.902 173.811 184.283 176.373 180.956 177.188L178.075 174.648 174.297 173.962C172.605 170.246 173.502 165.863 176.517 163.11 176.553 163.077 176.544 163.058 176.496 163.067 172.616 163.811 168.683 162.057 166.644 158.672L168.219 155.169 167.757 151.356C170.859 148.599 175.4 148.195 178.94 150.36 178.988 150.39 179.003 150.375 178.974 150.327 176.788 146.71 177.274 142.079 180.166 138.996L183.965 139.56 187.509 138.08C191.06 140.354 192.672 144.707 191.458 148.745 191.442 148.797 191.46 148.809 191.499 148.769 193.268 146.973 195.682 145.96 198.203 145.957 199.716 145.958 201.207 146.322 202.552 147.016L203.041 150.825 205.428 153.835C204.617 156.518 202.653 158.701 200.069 159.789Z" fill="#C55A11" transform="matrix(1 0 0 1.004 515 190)"/><path d="M113.717 213.914C113.196 213.595 112.516 213.759 112.197 214.279 111.879 214.8 112.043 215.48 112.563 215.799 112.567 215.802 112.571 215.804 112.575 215.806L115.023 217.283 112.292 217.96C111.757 218.102 111.392 218.596 111.413 219.149 111.472 219.758 112.013 220.203 112.621 220.144 112.674 220.139 112.728 220.13 112.78 220.117L115.554 219.429 114.078 221.877C113.771 222.405 113.949 223.082 114.477 223.389 114.993 223.69 115.655 223.526 115.971 223.019L117.448 220.571 118.135 223.345C118.257 223.838 118.699 224.185 119.207 224.185 119.442 224.186 119.672 224.11 119.861 223.97 120.205 223.674 120.362 223.216 120.27 222.772L119.593 220.04 122.041 221.516C122.546 221.821 123.201 221.676 123.529 221.186 123.862 220.646 123.694 219.938 123.153 219.605 123.146 219.601 123.138 219.596 123.13 219.591L120.734 218.147 123.466 217.47C124.001 217.328 124.366 216.834 124.345 216.281 124.291 215.714 123.814 215.281 123.245 215.28 123.155 215.28 123.065 215.291 122.978 215.313L120.203 216 121.679 213.552C121.995 213.029 121.827 212.35 121.304 212.034 120.781 211.719 120.102 211.887 119.786 212.41L118.31 214.858 117.624 212.083C117.502 211.59 117.059 211.244 116.551 211.243 116.316 211.243 116.087 211.319 115.898 211.459 115.554 211.755 115.397 212.215 115.489 212.66L116.166 215.39Z" fill="#C55A11" transform="matrix(1 0 0 1.004 515 190)"/><path d="M143.441 209.108 141.499 207.181 139.602 205.298 138.951 202.704 138.281 200.052 135.718 199.096C132.63 197.937 129.251 197.806 126.083 198.721 124.575 195.65 122.084 193.171 119.005 191.679L116.546 190.481 111.839 193.141 106.431 192.985 104.815 195.192C102.788 197.948 101.741 201.303 101.841 204.723 98.6049 205.394 95.6703 207.088 93.4716 209.556L91.6516 211.597 92.2992 214.253 92.9323 216.851 92.1323 219.402 91.3141 222.013 92.9987 224.168C94.9372 226.656 97.5956 228.486 100.611 229.409 100.256 232.745 101.004 236.106 102.741 238.976L104.154 241.318 106.883 241.485 109.553 241.649 111.754 243.167 114.006 244.72 116.562 243.75C119.158 242.767 121.438 241.099 123.161 238.924 125.116 239.786 127.229 240.23 129.366 240.228 129.996 240.228 130.626 240.189 131.252 240.113L133.967 239.779 135.234 237.355 136.472 234.985 138.757 233.596 141.094 232.174 141.25 229.444C141.447 226.095 140.54 222.773 138.67 219.989 140.906 217.765 142.403 214.905 142.957 211.8ZM132.875 217.906C131.873 218.478 130.781 218.873 129.646 219.076 129.598 219.085 129.596 219.105 129.641 219.123 133.727 220.719 136.317 224.768 136.051 229.146L132.528 231.289 130.619 234.943C130.203 234.994 129.785 235.02 129.367 235.02 126.134 235.029 123.094 233.486 121.193 230.871 121.173 230.845 121.153 230.849 121.148 230.882 120.624 234.524 118.157 237.59 114.712 238.882L111.318 236.541 107.203 236.289C104.926 232.541 105.327 227.751 108.196 224.433 108.228 224.396 108.216 224.379 108.17 224.394 107.177 224.711 106.14 224.872 105.097 224.872 104.988 224.872 104.878 224.871 104.768 224.867 101.76 224.77 98.9513 223.339 97.1047 220.963L98.3383 217.029 97.362 213.023C99.281 210.858 102.036 209.618 104.929 209.618 105.039 209.618 105.15 209.619 105.261 209.623 106.61 209.666 107.937 209.979 109.163 210.544 109.215 210.567 109.227 210.551 109.193 210.507 106.398 206.928 106.327 201.927 109.019 198.271L113.14 198.389 116.73 196.361C120.806 198.335 123.077 202.774 122.293 207.234 122.283 207.289 122.302 207.297 122.336 207.253 124.249 204.78 127.197 203.331 130.323 203.327 131.545 203.328 132.757 203.548 133.901 203.975L134.907 207.974 137.834 210.878C137.309 213.842 135.491 216.418 132.875 217.906Z" fill="#C55A11" transform="matrix(1 0 0 1.004 515 190)"/><path d="M173.653 93.293C179.439 83.9174 184.742 74.2534 189.544 64.338L189.503 64.2956C188.305 64.4925 187.092 64.5911 185.878 64.5904 185.153 64.5904 184.429 64.5383 183.707 64.4677 179.517 72.9242 175.156 80.8812 170.625 88.3383L171.615 91.493Z" fill="#C55A11" transform="matrix(1 0 0 1.004 515 190)"/><path d="M156.022 156.897 157.53 153.543 157.283 151.508C145.366 154.548 133.133 156.177 120.835 156.363 123.96 153.619 127.107 150.685 130.257 147.63L125.104 147.615 122.76 147.608C110.252 159.291 96.5318 169.606 81.8341 178.378 72.8411 183.72 63.4914 188.438 53.8513 192.497L51.8201 193.337C38.1677 199.096 23.8691 203.183 9.23542 205.509 8.1875 205.653 7.57344 205.714 7.57344 205.714L8.04896 210.901C9.10495 210.804 28.2951 208.913 55.3336 197.567 71.8589 195.979 83.1201 200.265 90.4263 205.247 91.6721 203.999 93.0724 202.916 94.593 202.023 86.5396 196.217 77.0003 192.822 67.0893 192.235 72.6042 189.55 78.3425 186.498 84.2508 183.001 94.9885 176.626 105.217 169.43 114.844 161.477 115.565 161.514 117.124 161.577 119.395 161.577 131.686 161.505 143.929 160.035 155.888 157.193Z" fill="#C55A11" transform="matrix(1 0 0 1.004 515 190)"/></g></svg>