<svg width="305" height="192" xmlns="http://www.w3.org/2000/svg" xmlns:xlink="http://www.w3.org/1999/xlink" overflow="hidden"><g transform="translate(-240 -442)"><path d="M248.361 555.714C238.637 545.99 238.637 530.224 248.361 520.499L318.788 450.072C328.512 440.348 344.278 440.348 354.003 450.072L424.43 520.499C434.154 530.224 434.154 545.99 424.43 555.714L354.003 626.141C344.278 635.865 328.512 635.865 318.788 626.141Z" fill="#FFA401" fill-rule="evenodd"/><path d="M361.083 555.714C351.359 545.99 351.359 530.224 361.083 520.499L431.51 450.072C441.234 440.348 457 440.348 466.724 450.072L537.151 520.499C546.876 530.224 546.876 545.99 537.151 555.714L466.724 626.141C457 635.865 441.234 635.865 431.51 626.141Z" fill="#FFA401" fill-rule="evenodd"/><text font-family="HGSGothicM,HGSGothicM_MSFontService,sans-serif" font-weight="700" font-size="48" transform="translate(312.595 559)">日本語</text></g></svg>