<svg width="304" height="192" xmlns="http://www.w3.org/2000/svg" xmlns:xlink="http://www.w3.org/1999/xlink" overflow="hidden"><g transform="translate(-739 -84)"><path d="M746.555 197.619C736.831 187.894 736.831 172.128 746.555 162.404L816.982 91.9771C826.706 82.2528 842.472 82.2529 852.196 91.9771L922.623 162.404C932.347 172.128 932.347 187.894 922.623 197.619L852.196 268.046C842.472 277.77 826.706 277.77 816.982 268.046Z" fill="#FFA401" fill-rule="evenodd"/><path d="M859.276 197.619C849.552 187.894 849.552 172.128 859.276 162.404L929.703 91.9771C939.428 82.2528 955.194 82.2529 964.918 91.9771L1035.34 162.404C1045.07 172.128 1045.07 187.894 1035.34 197.619L964.918 268.046C955.194 277.77 939.428 277.77 929.703 268.046Z" fill="#FFA401" fill-rule="evenodd"/><text font-family="Andika,Andika_MSFontService,sans-serif" font-weight="400" font-size="43" transform="translate(765.978 193)">N</text><text font-family="Andika,Andika_MSFontService,sans-serif" font-weight="400" font-size="43" transform="translate(797.311 193)">handeayvu</text></g></svg>