<svg width="305" height="192" xmlns="http://www.w3.org/2000/svg" xmlns:xlink="http://www.w3.org/1999/xlink" overflow="hidden"><g transform="translate(-730 -461)"><path d="M738.126 574.761C728.402 565.037 728.402 549.271 738.126 539.547L808.553 469.12C818.277 459.396 834.043 459.396 843.767 469.12L914.194 539.547C923.919 549.271 923.919 565.037 914.194 574.761L843.767 645.188C834.043 654.913 818.277 654.913 808.553 645.188Z" fill="#FFA401" fill-rule="evenodd"/><path d="M850.847 574.761C841.123 565.037 841.123 549.271 850.847 539.547L921.274 469.12C930.999 459.396 946.765 459.396 956.489 469.12L1026.92 539.547C1036.64 549.271 1036.64 565.037 1026.92 574.761L956.489 645.188C946.765 654.913 930.999 654.913 921.274 645.188Z" fill="#FFA401" fill-rule="evenodd"/><text font-family="HGSGothicM,HGSGothicM_MSFontService,sans-serif" font-weight="700" font-size="48" transform="translate(802.36 578)">沖縄口</text></g></svg>