<svg width="305" height="192" xmlns="http://www.w3.org/2000/svg" xmlns:xlink="http://www.w3.org/1999/xlink" overflow="hidden"><g transform="translate(-153 -100)"><path d="M161.391 213.619C151.667 203.894 151.667 188.128 161.391 178.404L231.818 107.977C241.542 98.2528 257.309 98.2529 267.033 107.977L337.46 178.404C347.184 188.128 347.184 203.894 337.46 213.619L267.033 284.046C257.309 293.77 241.542 293.77 231.818 284.046Z" fill="#FFA401" fill-rule="evenodd"/><path d="M274.113 213.619C264.389 203.894 264.389 188.128 274.113 178.404L344.54 107.977C354.264 98.2528 370.03 98.2529 379.755 107.977L450.182 178.404C459.906 188.128 459.906 203.894 450.182 213.619L379.755 284.046C370.03 293.77 354.264 293.77 344.54 284.046Z" fill="#FFA401" fill-rule="evenodd"/><text font-family="Sarabun,Sarabun_MSFontService,sans-serif" font-weight="400" font-size="48" transform="translate(213.487 214)">ภาษาไทย</text></g></svg>